# xmcd
#
# Track frame offsets: 
#        150
#        14626
#        30076
#        45283
#        58161
#        71184
#        86332
#        99337
#        114094
#        127081
#        141652
#        155980
#        169938
#        183787
#        197860
#        211827
#        224366
#        233673
#        247194
#        260563
#        273026
#        287053
#        298441
#        312359
#
# Disc length: 4340 seconds
#
# Revision: 0
# Processed by: cddbd v1.5.2PL0 Copyright (c) Steve Scherf et al.
# Submitted via: ExactAudioCopyFreeDBPlugin 1.0
#
DISCID=7010f218
DTITLE=Various Artist - The Rough Guide to The Blues Songsters
DYEAR=2015
DGENRE=Blues
TTITLE0=Luke Jordan - Pick Poor Robin Clean
TTITLE1=Henry Thomas - Don't Leave Me Here
TTITLE2=Jim Jackson - What A Time (Take 1)
TTITLE3=Daddy Stovepipe and Mississippi Sarah - The Spasm
TTITLE4=Papa Charlie Jackson - Your Baby Ain't Sweet Like Mine
TTITLE5=Mississippi John Hurt - Frankie
TTITLE6=Pink Anderson and Simmie Dooley - Every Day In The Week Blues
TTITLE7=Frank Stokes - How Long
TTITLE8=Furry Lewis - John Henry (The Steel Driving Man) - Part 1
TTITLE9=Lonnie Coleman - Old Rock Island Blues
TTITLE10=Dick Justice - Cocaine
TTITLE11=Charley Patton - Mississippi Boweavil Blues
TTITLE12=Frank Hutchison - Stackalee
TTITLE13=Hambone Willie Newbern - Nobody Knows (The The Good Deacon Do
TTITLE13=es)
TTITLE14=Stovepipe No. 1 and David Crocket - A Chicken Can Waltz The Gra
TTITLE14=vy Around
TTITLE15=Louie Laskey - How You Want Your Rollin' Done
TTITLE16=Leadbelly - Midnight Special
TTITLE17=Long 'Cleve' Reed and Little Harvey Hull - Hey! Lawdy Mama - Th
TTITLE17=e France Blues
TTITLE18=Will Bennett - Railroad Bill
TTITLE19=Blind Blake - Come On Boys Let's Do That Messin' Around
TTITLE20=Richard 'Rabbit' Brown - James Alley Blues
TTITLE21=Cannon's Jug Stompers - Going To Germany
TTITLE22=Peg Leg Howell - Coal Man Blues
TTITLE23=Tommie Bradley - Nobody's Business If I Do
EXTD=
EXTT0=
EXTT1=
EXTT2=
EXTT3=
EXTT4=
EXTT5=
EXTT6=
EXTT7=
EXTT8=
EXTT9=
EXTT10=
EXTT11=
EXTT12=
EXTT13=
EXTT14=
EXTT15=
EXTT16=
EXTT17=
EXTT18=
EXTT19=
EXTT20=
EXTT21=
EXTT22=
EXTT23=
PLAYORDER=
